#!OML:ASF F:\VICON\USERDATA\INSTALL\rory3\rory3.ASF
:FULLY-SPECIFIED
:DEGREES
573
root -4.10226 15.3528 22.7849 572.544 -18.7315 179.99
lowerback 5.40602 4.95567 -8.69214
upperback -3.83312 4.91703 -7.37006
thorax -7.23399 2.41878 -3.53071
lowerneck -13.3688 9.04553 2.44723
upperneck -4.61156 11.4078 -11.9395
head 1.76914 5.20726 -3.66319
rclavicle -5.56597e-015 3.97569e-014
rhumerus 109.94 -56.5984 193.276
rradius 7.95389
rwrist 95.584
rhand -15.9125 12.6935
rfingers 7.12502
rthumb 10.2846 -17.0351
lclavicle -5.56597e-015 3.97569e-014
lhumerus 0.704222 34.6641 68.1871
lradius 18.0323
lwrist -28.9788
lhand -5.82287 22.7736
lfingers 7.12502
lthumb 20.0026 51.7641
rfemur 0.880444 3.69423 29.5294
rtibia 1.59028e-014
rfoot -46.2272 -44.6044
rtoes 2.38541
lfemur -84.8086 15.6248 -48.3216
ltibia 56.5914
lfoot -25.8382 27.5601
ltoes 17.2967
574
root -4.10807 15.3461 22.7762 572.545 -18.6789 179.989
lowerback 5.69077 4.91093 -8.57575
upperback -3.92356 4.78492 -7.54979
thorax -7.47198 2.3371 -3.80438
lowerneck -13.5747 8.82304 2.6391
upperneck -4.45068 11.0969 -11.5443
head 1.81907 5.05198 -3.57692
rclavicle -1.00187e-013 3.97569e-014
rhumerus 108.727 -57.8753 192.224
rradius 7.88021
rwrist 94.5994
rhand -16.0809 12.9659
rfingers 7.12502
rthumb 10.1221 -16.7706
lclavicle -1.00187e-013 3.97569e-014
lhumerus -0.231612 32.5407 68.5448
lradius 18.2801
lwrist -27.6186
lhand -5.50096 23.0102
lfingers 7.12502
lthumb 20.312 51.968
rfemur 0.909482 3.73321 29.4817
rtibia -3.18055e-015
rfoot -46.4107 -44.6402
rtoes 2.27848
lfemur -84.8534 15.709 -48.3877
ltibia 56.69
lfoot -25.9815 27.2613
ltoes 17.8315
575
root -4.1101 15.3443 22.7686 572.742 -18.5789 179.684
lowerback 5.78588 4.88949 -8.89063
upperback -3.87877 4.68386 -7.68341
thorax -7.5005 2.28755 -3.77023
lowerneck -14.2337 8.42361 2.23143
upperneck -4.20978 10.6148 -10.7736
head 1.89423 4.80596 -3.25261
rclavicle -5.00937e-014 1.59028e-015
rhumerus 107.705 -59.0804 191.191
rradius 7.90967
rwrist 93.7372
rhand -16.0536 13.2435
rfingers 7.12502
rthumb 10.1485 -16.4917
lclavicle -5.00937e-014 1.59028e-015
lhumerus -0.818017 31.0842 69.3433
lradius 18.4763
lwrist -27.1061
lhand -5.19036 23.5414
lfingers 7.12502
lthumb 20.6105 52.4672
rfemur 0.823996 3.67374 29.1379
rtibia -1.90833e-014
rfoot -46.627 -44.4441
rtoes 2.41913
lfemur -84.8987 15.6063 -48.7406
ltibia 56.7745
lfoot -26.0278 27.3775
ltoes 17.4715
576
root -4.11364 15.3417 22.762 572.933 -18.5177 179.636
lowerback 5.56599 4.84604 -9.24529
upperback -3.76723 4.64737 -7.5776
thorax -7.29365 2.2873 -3.43024
lowerneck -14.3278 8.23554 2.45963
upperneck -4.29121 10.3109 -10.8281
head 1.88286 4.6451 -3.33566
rclavicle 1.1609e-013 -1.24042e-013
rhumerus 106.418 -60.1624 190.62
rradius 7.8395
rwrist 92.9211
rhand -15.9363 13.5656
rfingers 7.12502
rthumb 10.2616 -16.1641
lclavicle 1.1609e-013 -1.24042e-013
lhumerus -1.1981 31.1758 70.4941
lradius 18.5806
lwrist -27.6643
lhand -4.51782 23.5079
lfingers 7.12502
lthumb 21.2566 52.3623
rfemur 0.652832 3.72843 29.0453
rtibia 1.27222e-014
rfoot -46.6303 -44.4786
rtoes 2.24109
lfemur -85.1458 15.5334 -48.8926
ltibia 56.9
lfoot -25.8252 27.6378
ltoes 16.6069
577
root -4.11971 15.334 22.756 572.946 -18.3839 179.919
lowerback 5.57667 4.78789 -9.15355
upperback -3.80401 4.57411 -7.5627
thorax -7.33086 2.24902 -3.45781
lowerneck -14.2321 8.04459 2.74731
upperneck -4.49743 9.98463 -10.5596
head 1.77344 4.49438 -3.32725
rclavicle 1.66979e-014 -8.11041e-014
rhumerus 104.797 -61.4386 189.984
rradius 7.74198
rwrist 91.8835
rhand -15.853 13.8946
rfingers 7.12502
rthumb 10.342 -15.8311
lclavicle 1.66979e-014 -8.11041e-014
lhumerus -1.85008 30.7741 71.0707
lradius 18.7218
lwrist -27.8304
lhand -3.92769 23.1791
lfingers 7.12502
lthumb 21.8234 51.9685
rfemur 0.567955 4.00413 29.2043
rtibia 3.18055e-015
rfoot -46.2789 -44.7572
rtoes 1.72309
lfemur -85.4759 15.6686 -48.7376
ltibia 57.0861
lfoot -25.8943 27.7289
ltoes 16.4035
